<?xml version="1.0" encoding="UTF-8"?>
<svg version="1.1" viewBox="0 0 2048 168" width="3758" height="309" xmlns="http://www.w3.org/2000/svg">
<path transform="translate(1125,2)" d="m0 0h135l1 1v31l-1 1-124 1-4 4v22l4 4h97l8 7 12 11 8 7v50l-15 13-11 9h-137v-32l125-1 4-4v-21l-6-5-98-1-25-25v-48l15-14 8-7z" fill="#268EBF"/>
<path transform="translate(1883,2)" d="m0 0h136l7 7 8 7 11 10v70l-11 10-11 9-4 3h-10l9 11 14 15 7 8 9 10v1h-44l-10-11-9-11-13-14-7-8-50-1v45h-32zm32 33v50l1 1h91l6-5v-40l-6-6z" fill="#268EBF"/>
<path transform="translate(903,2)" d="m0 0h33l10 11 9 11 12 13 9 11 12 13 9 11 12 13 9 11 13 14 1 2 1-110h32l1 62v99h-33l-11-12-9-11-13-14-9-11-12-13-9-11-12-13-9-11-12-13v-2h-2v111h-32z" fill="#268EBF"/>
<path transform="translate(635,2)" d="m0 0h32l8 8 9 11 12 13 7 8 12 14 10 11 9 11 12 13 9 11 9 10v-109l1-1h32l1 128v33h-33l-7-7-9-11-12-13-9-11-12-13-9-11-13-14-9-11-12-13-5-6-1 110h-32z" fill="#268EBF"/>
<path transform="translate(460,2)" d="m0 0h145l1 1v31l-1 1h-113v31h71l1 1v32h-72v32h114v32h-146z" fill="#268EBF"/>
<path transform="translate(268,2)" d="m0 0h136l7 7 8 7 11 10v70l-11 10-11 9-4 3h-104v45h-32zm32 33v50l1 1h91l6-5v-40l-6-6z" fill="#F6C235"/>
<path transform="translate(1727,2)" d="m0 0h51l5 8 21 41 10 19 16 31 10 19 15 29 7 14h-37l-14-27-5-9h-107l-18 35-1 1h-36l2-6 10-20 10-19 15-29 12-23 28-54zm19 33-20 39-10 19v1h73l-2-6-15-29-10-19-3-5z" fill="#268EBF"/>
<path transform="translate(31,2)" d="m0 0h109l12 11 8 7 7 6v30l-1 1h-31l-1-1-1-16-5-4h-85l-5 4v87l4 3h87l3-3h2v-17h33v31l-11 10-11 9-4 3h-111l-11-9-15-13v-115l12-11 8-7z" fill="#F6C235"/>
<path transform="translate(1293,2)" d="m0 0h32v125l4 2 1 1h87l4-3 1-124 1-1h32v139l-11 10-11 9-4 3h-111l-14-12-11-9-1-1v-138z" fill="#268EBF"/>
<path transform="translate(1489,2)" d="m0 0h32v129h114v32h-146z" fill="#268EBF"/>
<path transform="translate(198,2)" d="m0 0h33v161h-32l-1-54z" fill="#F6C235"/>
<path transform="translate(834,2)" d="m0 0h32l1 79v82h-33z" fill="#268EBF"/>
</svg>
