<?xml version="1.0" encoding="UTF-8"?>
<svg id="Capa_1" data-name="Capa 1" xmlns="http://www.w3.org/2000/svg" xmlns:xlink="http://www.w3.org/1999/xlink" viewBox="0 0 400 400">
  <defs>
    <style>
      .cls-1 {
        fill: url(#GradientFill_4);
      }

      .cls-1, .cls-2, .cls-3, .cls-4, .cls-5, .cls-6, .cls-7, .cls-8, .cls-9, .cls-10, .cls-11 {
        fill-rule: evenodd;
      }

      .cls-2 {
        fill: #fbce22;
      }

      .cls-12, .cls-3 {
        fill: #fff;
      }

      .cls-13 {
        fill: none;
      }

      .cls-4 {
        fill: #008db7;
      }

      .cls-5 {
        fill: url(#GradientFill_6);
      }

      .cls-6 {
        fill: url(#GradientFill_7);
      }

      .cls-7 {
        fill: #0072a2;
      }

      .cls-8 {
        fill: url(#GradientFill_3);
      }

      .cls-9 {
        fill: url(#GradientFill_1);
      }

      .cls-10 {
        fill: url(#GradientFill_5);
      }

      .cls-11 {
        fill: url(#GradientFill_2);
      }
    </style>
    <linearGradient id="GradientFill_1" data-name="GradientFill 1" x1="173.04" y1="199.92" x2="190.57" y2="221.93" gradientUnits="userSpaceOnUse">
      <stop offset="0" stop-color="#13abda"/>
      <stop offset=".16" stop-color="#13a2d1"/>
      <stop offset=".42" stop-color="#1389ba"/>
      <stop offset=".75" stop-color="#136295"/>
      <stop offset="1" stop-color="#144075"/>
    </linearGradient>
    <linearGradient id="GradientFill_2" data-name="GradientFill 2" x1="246.52" y1="204.64" x2="196.45" y2="204.64" gradientUnits="userSpaceOnUse">
      <stop offset="0" stop-color="#13abda"/>
      <stop offset="1" stop-color="#114480"/>
    </linearGradient>
    <linearGradient id="GradientFill_3" data-name="GradientFill 3" x1="162.11" y1="259.23" x2="197.99" y2="282.22" gradientUnits="userSpaceOnUse">
      <stop offset="0" stop-color="#0072a2"/>
      <stop offset=".25" stop-color="#046a9c"/>
      <stop offset=".62" stop-color="#0f568c"/>
      <stop offset="1" stop-color="#1e3b77"/>
    </linearGradient>
    <linearGradient id="GradientFill_4" data-name="GradientFill 4" x1="147.51" y1="245.66" x2="165.33" y2="261.7" gradientUnits="userSpaceOnUse">
      <stop offset="0" stop-color="#0072a2"/>
      <stop offset=".27" stop-color="#056799"/>
      <stop offset=".74" stop-color="#124d83"/>
      <stop offset="1" stop-color="#1c3b74"/>
    </linearGradient>
    <linearGradient id="GradientFill_5" data-name="GradientFill 5" x1="232.69" y1="235.6" x2="254.05" y2="251.55" gradientUnits="userSpaceOnUse">
      <stop offset="0" stop-color="#e9b200"/>
      <stop offset="1" stop-color="#e7bf00"/>
    </linearGradient>
    <linearGradient id="GradientFill_6" data-name="GradientFill 6" x1="230.66" y1="260.67" x2="216.74" y2="274.85" gradientUnits="userSpaceOnUse">
      <stop offset="0" stop-color="#e9b200"/>
      <stop offset="1" stop-color="#c9a00e"/>
    </linearGradient>
    <linearGradient id="GradientFill_7" data-name="GradientFill 7" x1="223.31" y1="290.24" x2="212.29" y2="285.92" gradientUnits="userSpaceOnUse">
      <stop offset="0" stop-color="#c69a10"/>
      <stop offset="1" stop-color="#f7d010"/>
    </linearGradient>
  </defs>
  <polygon class="cls-4" points="197.29 168.26 132.9 204.89 147.28 213.17 197.22 184.58 224.55 200.04 239.14 191.96 197.29 168.26"/>
  <polygon class="cls-2" points="197.41 241.52 261.61 204.77 246.52 196.31 196.46 224.64 168.9 209.13 154.59 217.35 197.41 241.52"/>
  <polygon class="cls-4" points="181.48 251.03 131.21 222.44 131.32 206.26 196.94 243.62 196.94 289.22 181.67 280.86 181.48 251.03"/>
  <polygon class="cls-4" points="146.1 269.59 197.1 298.21 196.98 314.23 131.41 277.13 131.39 231.1 146.27 239.76 146.1 269.59"/>
  <polygon class="cls-2" points="261.8 278.09 261.63 208 246.74 216.65 246.61 270.56 221.12 284.92 221.49 301.27 261.8 278.09"/>
  <polygon class="cls-2" points="198.92 243.39 199.07 313.49 214.05 304.89 214.24 251.27 238.33 237.5 238.08 221.2 198.92 243.39"/>
  <polygon class="cls-9" points="168.79 209.2 154.59 217.35 147.15 213.09 197.22 184.58 196.45 224.7 168.79 209.2"/>
  <polygon class="cls-11" points="224.55 200.04 239.14 191.96 246.52 196.31 196.45 224.7 197.22 184.58 224.55 200.04"/>
  <polygon class="cls-7" points="144.24 229.86 158.55 237.99 146.27 239.76 131.39 231.1 144.24 229.86"/>
  <polygon class="cls-8" points="146.1 269.59 197.1 298.21 196.94 289.22 181.67 280.8 181.48 251.03 146.1 269.59"/>
  <polygon class="cls-1" points="146.1 269.59 181.48 251.03 158.43 237.93 146.27 239.76 146.1 269.59"/>
  <line class="cls-13" x1="197.22" y1="184.58" x2="196.46" y2="224.64"/>
  <polygon class="cls-10" points="238.33 237.5 238.08 221.2 246.74 216.65 246.61 270.56 214.24 251.27 238.33 237.5"/>
  <polygon class="cls-5" points="214.24 251.27 214.16 274.95 221.12 284.92 246.61 270.56 214.24 251.27"/>
  <polygon class="cls-6" points="214.11 292.22 214.11 274.89 221.12 284.92 221.49 301.27 214.11 292.22"/>
  <path class="cls-3" d="M111.21,122.88h-25.25v101.01h25.25v-12.63h17.29l-.07,10.07c-.11,1.18-.07,2.53-.06,3.56,0,.68.08,1.36.25,2.02.1.41.04.25-.09.87-.26,1.29-.24,2.66.08,3.95v30.02s-67.92,0-67.92,0l-25.25-25.25v-126.26l25.25-25.25h75.76l25.25,25.25v25.25h-50.5v-12.63h0ZM264.13,204.77v.04s0-.04,0-.04h0ZM264.13,204.47h-.01s.01,0,.01,0h0ZM264.17,204.39h0s0,0,0,0h0ZM263.87,204.31h0s0,0,0,0h0ZM264.24,204.75h0s-.05-.11-.05-.11l.06-.02c0,.06.03.1.09.05v-.17s.12.16.12.16l-.09.27h-.01c-.04-.07.03-.1-.06-.1l-.04-.14v.05h0ZM264.1,204.44l.03-.03-.03.03h0ZM264.23,204.42s-.04.01-.06.03l.04.05-.04.03h0s.06.03.06.03c0-.05,0-.1,0-.14h0ZM264.29,204.94l-.03-.04.23.76v-.24c-.12-.12.02-.03-.15-.3l-.05-.18h0ZM264.36,204.98l.02.03c.05.33.1.09.1.34h0s0-.66,0-.66c0,.08-.01.27-.12.29h0ZM264.44,204.61v-.15s.05.13.05.13l-.05-.31s-.02.07-.04.11c0,.13,0,.06-.07.04.03.07.1.09.1.18h0ZM264.32,204.29h0s.01-.01.01-.01h-.02ZM264.35,204.33s0,.04.01.05h-.03s.01-.05.01-.05h0ZM264.53,204.76v-.21s0,.21,0,.21h0ZM264.53,204.16v-.15s.04.31.04.31v-.07s0,.05,0,.05l-.02.09-.03-.22h0ZM264.47,203.79h0s0,0,0,0h0ZM264.43,203.96v.02s0-.02,0-.02h0ZM264.63,203.53h0s0,0,0,0h0ZM264.64,203.58v.04s-.21.1-.21.1l.21-.1v.19s0-.22,0-.22h0ZM264.65,203.87c0,.1,0,.21-.03.3l.03-.3h0ZM264.49,204.26v-.06s0,.06,0,.06h0ZM264.49,203.94l-.02.06.02-.06h0ZM264.29,204.46v-.05s0,0,0,0v.15h0s0-.1,0-.1h0ZM264.29,204.6v.04s0,0,0,0v-.04h0ZM264.29,204.23h0s0,0,0,0h0ZM264.23,204.16h0s0,0,0,0h0ZM264.18,203.84h0s0,0,0,0h0ZM264.74,204.24v.32s-.02-.02-.03-.02c0-.02,0-.04,0-.07l.03-.23h0ZM264.65,204.54s-.04.12-.06.14h-.02v-.27l.03-.03c.01.06.03.11.05.15h0ZM264.64,204.33l.03.12.05-.46s-.03.02-.04,0v.17c-.04.11-.04.14-.04.17h0ZM264.74,204.62l-.04-.03s-.01,0-.02,0l-.09.14.16.55v-.66h0ZM264.78,204.63h0l.05.53.05.02v1.41h-.11c.11,0,.05-.58.05-.73l-.05-1.23h0ZM264.78,205.56v.98s0-.98,0-.98h0ZM264.54,204.81l.05.75c-.12-.12-.06-.47-.06-.65v-.09h0ZM264.59,205.61l-.06-.06.06.51v-.45h0ZM264.63,205.63v.27s0-.27,0-.27h0ZM174.34,177.71v-92.71h50.5v94.89l-27.2-15.73-23.31,13.54h0ZM313.23,122.88h-25.25v37.88h25.25v-37.88h0ZM287.98,198.63v63.13h-22.8l-.14-55.08-.26.16c-.02-.1-.04-.21-.07-.31.07.03-.02.16.2.09v-1.49h-.04l-.05-.53-.05-.02c0-.06.02-.29.02-.46v.04s-.02-.58-.02-.58c.03-.07.02-.15-.01-.2l.26-.15-15.8-9.06-11.75-6.98v-102.2h101.01l25.25,25.25v63.13l-25.25,25.25h-50.5ZM264.72,203.87v-.29s0,.29,0,.29h0ZM264.69,203.43h0s0,0,0,0h0ZM264.7,206.49l-.04-.14c-.03-.17-.09-.3,0-.44.01-.02.06-.33-.05-.33,0-.15.06-.37-.05-.49v-.23l.16.64v1s-.03-.01-.03-.01h0ZM264.48,205.75v.02s-.04-.3-.04-.3l-.22-.5c.01.16-.09-.09-.1-.1v.02c.13.28.25.57.36.86h0ZM264.06,204.78h0s0,0,0,0h0ZM264.05,204.67h-.01s.02.1.02.1h0s.04-.07.04-.07c-.02-.01-.04-.02-.05-.03h0ZM263.83,204.35v-.02s0,.02,0,.02h0ZM264.28,203.67h0s0,0,0,0h0ZM264.4,203.65h0s0,0,0,0Z"/>
  <g>
    <path class="cls-12" d="M50.09,327.25h-1.66v12.18h1.66v-1.52h3.32v3.05l-1.66,3.05h-4.98l-1.66-3.05v-15.23l1.66-3.05h4.98l1.66,3.05v3.05h-3.32v-1.52Z"/>
    <path class="cls-12" d="M62.58,340.95l-1.66,3.05h-4.98l-1.66-3.05v-15.23l1.68-3.05h4.96l1.66,3.05v15.23ZM59.26,339.43v-12.18h-1.66v12.18h1.66Z"/>
    <path class="cls-12" d="M66.76,335.32v8.68h-3.32v-21.32h3.53l2.28,8.68v-8.68h3.32v21.32h-3.53l-2.28-8.68Z"/>
    <path class="cls-12" d="M73.44,325.72l1.66-3.05h4.98l1.66,3.05v3.05h-3.32v-1.52h-1.66v3.81h3.32l1.66,3.05v6.85l-1.66,3.05h-4.98l-1.66-3.05v-3.05h3.32v1.52h1.66v-3.81h-3.32l-1.66-3.05v-6.85Z"/>
    <path class="cls-12" d="M90.9,322.68v4.57h-2.49v16.75h-3.32v-16.75h-2.49v-4.57h8.3Z"/>
    <path class="cls-12" d="M95.16,336.38h-.07v7.62h-3.32v-21.32h6.64l1.66,3.05v7.62l-1.47,2.69,2.09,7.97h-3.53l-2-7.62ZM96.75,327.25h-1.66v4.57h1.66v-4.57Z"/>
    <path class="cls-12" d="M104.25,322.68v16.75h1.66v-16.75h3.32v18.28l-1.66,3.05h-4.98l-1.66-3.05v-18.28h3.32Z"/>
    <path class="cls-12" d="M115.08,327.25h-1.66v12.18h1.66v-1.52h3.32v3.05l-1.66,3.05h-4.98l-1.66-3.05v-15.23l1.66-3.05h4.98l1.66,3.05v3.05h-3.32v-1.52Z"/>
    <path class="cls-12" d="M124.24,327.25h-1.66v12.18h1.66v-1.52h3.32v3.05l-1.66,3.05h-4.98l-1.66-3.05v-15.23l1.66-3.05h4.98l1.66,3.05v3.05h-3.32v-1.52Z"/>
    <path class="cls-12" d="M128.43,344v-21.32h3.32v21.32h-3.32Z"/>
    <path class="cls-12" d="M140.91,340.95l-1.66,3.05h-4.98l-1.66-3.05v-15.23l1.68-3.05h4.96l1.66,3.05v15.23ZM137.59,339.43v-12.18h-1.66v12.18h1.66Z"/>
    <path class="cls-12" d="M145.1,335.32v8.68h-3.32v-21.32h3.53l2.28,8.68v-8.68h3.32v21.32h-3.53l-2.28-8.68Z"/>
    <path class="cls-12" d="M161.77,327.25v3.81h4.98v4.57h-4.98v3.81h4.98v4.57h-6.64l-1.66-3.05v-15.23l1.66-3.05h6.64v4.57h-4.98Z"/>
    <path class="cls-12" d="M174.29,344v-21.32h3.32v21.32h-3.32Z"/>
    <path class="cls-12" d="M181.79,335.32v8.68h-3.32v-21.32h3.53l2.28,8.68v-8.68h3.32v21.32h-3.53l-2.28-8.68Z"/>
    <path class="cls-12" d="M191.79,335.32v8.68h-3.32v-21.32h3.53l2.28,8.68v-8.68h3.32v21.32h-3.53l-2.28-8.68Z"/>
    <path class="cls-12" d="M206.76,340.95l-1.66,3.05h-4.98l-1.66-3.05v-15.23l1.68-3.05h4.96l1.66,3.05v15.23ZM203.44,339.43v-12.18h-1.66v12.18h1.66Z"/>
    <path class="cls-12" d="M210.53,344l-2.91-21.32h3.32l1.66,12.18,1.66-12.18h3.32l-2.91,21.32h-4.15Z"/>
    <path class="cls-12" d="M221.77,337.91v6.09h-3.32v-18.28l1.66-3.05h4.98l1.66,3.05v18.28h-3.32v-6.09h-1.66ZM223.43,333.34v-6.09h-1.66v6.09h1.66Z"/>
    <path class="cls-12" d="M232.59,327.25h-1.66v12.18h1.66v-1.52h3.32v3.05l-1.66,3.05h-4.98l-1.66-3.05v-15.23l1.66-3.05h4.98l1.66,3.05v3.05h-3.32v-1.52Z"/>
    <path class="cls-12" d="M236.78,344v-21.32h3.32v21.32h-3.32Z"/>
    <path class="cls-12" d="M249.26,340.95l-1.66,3.05h-4.98l-1.66-3.05v-15.23l1.68-3.05h4.96l1.66,3.05v15.23ZM243.87,316.59h3.32l-2.49,4.57h-1.66l.83-4.57ZM245.94,339.43v-12.18h-1.66v12.18h1.66Z"/>
    <path class="cls-12" d="M253.45,335.32v8.68h-3.32v-21.32h3.53l2.28,8.68v-8.68h3.32v21.32h-3.53l-2.28-8.68Z"/>
    <path class="cls-12" d="M270.12,336.38v7.62h-3.32v-21.32h6.64l1.66,3.05v7.62l-1.66,3.05h-3.32ZM271.78,327.25h-1.66v4.57h1.66v-4.57Z"/>
    <path class="cls-12" d="M279.28,327.25v3.81h4.98v4.57h-4.98v3.81h4.98v4.57h-6.64l-1.66-3.05v-15.23l1.66-3.05h6.64v4.57h-4.98Z"/>
    <path class="cls-12" d="M288.45,335.32v8.68h-3.32v-21.32h3.53l2.28,8.68v-8.68h3.32v21.32h-3.53l-2.28-8.68Z"/>
    <path class="cls-12" d="M295.12,344v-21.32h3.32v21.32h-3.32Z"/>
    <path class="cls-12" d="M302.63,335.32v8.68h-3.32v-21.32h3.53l2.28,8.68v-8.68h3.32v21.32h-3.53l-2.28-8.68Z"/>
    <path class="cls-12" d="M309.3,325.72l1.66-3.05h4.98l1.66,3.05v3.05h-3.32v-1.52h-1.66v3.81h3.32l1.66,3.05v6.85l-1.66,3.05h-4.98l-1.66-3.05v-3.05h3.32v1.52h1.66v-3.81h-3.32l-1.66-3.05v-6.85Z"/>
    <path class="cls-12" d="M321.79,322.68v16.75h1.66v-16.75h3.32v18.28l-1.66,3.05h-4.98l-1.66-3.05v-18.28h3.32Z"/>
    <path class="cls-12" d="M330.95,322.68v16.75h4.98v4.57h-6.64l-1.66-3.05v-18.28h3.32Z"/>
    <path class="cls-12" d="M340.12,337.91v6.09h-3.32v-18.28l1.66-3.05h4.98l1.66,3.05v18.28h-3.32v-6.09h-1.66ZM341.78,333.34v-6.09h-1.66v6.09h1.66Z"/>
    <path class="cls-12" d="M349.36,336.38h-.07v7.62h-3.32v-21.32h6.64l1.66,3.05v7.62l-1.47,2.69,2.09,7.97h-3.53l-2-7.62ZM350.94,327.25h-1.66v4.57h1.66v-4.57Z"/>
  </g>
</svg>