<?xml version="1.0"?>
<svg width="340" height="280" xmlns="http://www.w3.org/2000/svg" xmlns:svg="http://www.w3.org/2000/svg" data-name="Capa 1">
 <defs>
  <style>.cls-1 {
        fill: url(#GradientFill_6);
      }

      .cls-1, .cls-2, .cls-3, .cls-4, .cls-5, .cls-6, .cls-7, .cls-8, .cls-9, .cls-10, .cls-11, .cls-12, .cls-13 {
        stroke: #000;
      }

      .cls-1, .cls-2, .cls-4, .cls-6, .cls-7, .cls-8, .cls-9, .cls-10, .cls-11, .cls-12, .cls-13 {
        fill-rule: evenodd;
      }

      .cls-1, .cls-3, .cls-4, .cls-6, .cls-10 {
        stroke-miterlimit: 22.93;
        stroke-width: .57px;
      }

      .cls-2 {
        fill: url(#GradientFill_4);
      }

      .cls-2, .cls-5, .cls-7, .cls-8, .cls-9, .cls-11, .cls-12, .cls-13 {
        stroke-miterlimit: 10;
      }

      .cls-3 {
        fill: none;
      }

      .cls-4 {
        fill: url(#GradientFill_7);
      }

      .cls-5, .cls-10 {
        fill: #fff;
      }

      .cls-6 {
        fill: url(#GradientFill_5);
      }

      .cls-7 {
        fill: url(#GradientFill_3);
      }

      .cls-8 {
        fill: #008db7;
      }

      .cls-9 {
        fill: url(#GradientFill_1);
      }

      .cls-11 {
        fill: url(#GradientFill_2);
      }

      .cls-12 {
        fill: #0072a2;
      }

      .cls-13 {
        fill: #fbce22;
      }</style>
 </defs>
 <g class="layer">
  <title>Layer 1</title>
  <polygon class="cls-8" id="svg_1" points="167.2899932861328,92.25999450683594 102.89999389648438,128.88999938964844 117.27999877929688,137.1699981689453 167.22000122070312,108.58000183105469 194.5500030517578,124.03999328613281 209.13999938964844,115.96000671386719 167.2899932861328,92.25999450683594 "/>
  <polygon class="cls-13" id="svg_2" points="167.41000366210938,165.52000427246094 231.6099853515625,128.77000427246094 216.52000427246094,120.30999755859375 166.46002197265625,148.63999938964844 138.89999389648438,133.1300048828125 124.58999633789062,141.35000610351562 167.41000366210938,165.52000427246094 "/>
  <polygon class="cls-8" id="svg_3" points="151.48001098632812,175.02999877929688 101.21002197265625,146.44000244140625 101.32000732421875,130.25999450683594 166.94000244140625,167.6199951171875 166.94000244140625,213.22000122070312 151.66998291015625,204.8599853515625 151.48001098632812,175.02999877929688 "/>
  <polygon class="cls-8" id="svg_4" points="116.10000610351562,193.58999633789062 167.10000610351562,222.20999145507812 166.97998046875,238.23001098632812 101.41000366210938,201.1300048828125 101.3900146484375,155.10000610351562 116.27001953125,163.75999450683594 116.10000610351562,193.58999633789062 "/>
  <polygon class="cls-13" id="svg_5" points="231.79998779296875,202.08999633789062 231.6300048828125,132 216.74000549316406,140.64999389648438 216.61000061035156,194.55999755859375 191.1199951171875,208.92001342773438 191.49000549316406,225.26998901367188 231.79998779296875,202.08999633789062 "/>
  <polygon class="cls-13" id="svg_6" points="168.9199981689453,167.38999938964844 169.07000732421875,237.489990234375 184.0500030517578,228.8900146484375 184.24000549316406,175.27000427246094 208.3300018310547,161.5 208.0800018310547,145.1999969482422 168.9199981689453,167.38999938964844 "/>
  <polygon class="cls-9" id="svg_7" points="138.78997802734375,133.1999969482422 124.58999633789062,141.35000610351562 117.14999389648438,137.08999633789062 167.22000122070312,108.58000183105469 166.45001220703125,148.6999969482422 138.78997802734375,133.1999969482422 "/>
  <polygon class="cls-11" id="svg_8" points="193.5500030517578,124.03999328613281 208.13999938964844,115.96000671386719 215.52000427246094,120.30999755859375 165.45001220703125,148.6999969482422 166.22000122070312,108.58000183105469 193.5500030517578,124.03999328613281 "/>
  <polygon class="cls-12" id="svg_9" points="114.24002075195312,153.86000061035156 128.55001831054688,161.99000549316406 116.27001953125,163.75999450683594 101.3900146484375,155.10000610351562 114.24002075195312,153.86000061035156 "/>
  <polygon class="cls-7" id="svg_10" points="116.10000610351562,193.58999633789062 167.10000610351562,222.20999145507812 166.94000244140625,213.22000122070312 151.66998291015625,204.79998779296875 151.48001098632812,175.02999877929688 116.10000610351562,193.58999633789062 "/>
  <polygon class="cls-2" id="svg_11" points="116.10000610351562,193.58999633789062 151.48001098632812,175.02999877929688 128.42999267578125,161.92999267578125 116.27001953125,163.75999450683594 116.10000610351562,193.58999633789062 "/>
  <line class="cls-3" id="svg_12" x1="167.22" x2="166.46" y1="108.58" y2="148.64"/>
  <polygon class="cls-6" id="svg_13" points="208.3300018310547,161.5 208.0800018310547,145.1999969482422 216.74000549316406,140.64999389648438 216.61000061035156,194.55999755859375 184.24000549316406,175.27000427246094 208.3300018310547,161.5 "/>
  <polygon class="cls-1" id="svg_14" points="184.24000549316406,175.27000427246094 184.16000366210938,198.95001220703125 191.1199951171875,208.92001342773438 216.61000061035156,194.55999755859375 184.24000549316406,175.27000427246094 "/>
  <polygon class="cls-4" id="svg_15" points="184.11000061035156,216.22000122070312 184.11000061035156,198.8900146484375 191.1199951171875,208.92001342773438 191.49000549316406,225.26998901367188 184.11000061035156,216.22000122070312 "/>
  <path class="cls-10" d="m81.21,46.88l-25.25,0l0,101.01l25.25,0l0,-12.63l17.29,0l-0.07,10.07c-0.11,1.18 -0.07,2.53 -0.06,3.56c0,0.68 0.08,1.36 0.25,2.02c0.1,0.41 0.04,0.25 -0.09,0.87c-0.26,1.29 -0.24,2.66 0.08,3.95l0,30.02s-67.92,0 -67.92,0l-25.25,-25.25l0,-126.26l25.25,-25.25l75.76,0l25.25,25.25l0,25.25l-50.5,0l0,-12.63l0,0l0.01,0.02zm152.92,81.89l0,0.04s0,-0.04 0,-0.04l0,0zm0,-0.3l-0.01,0s0.01,0 0.01,0l0,0zm0.04,-0.08l0,0s0,0 0,0l0,0zm-0.3,-0.08l0,0s0,0 0,0l0,0zm0.37,0.44l0,0s-0.05,-0.11 -0.05,-0.11l0.06,-0.02c0,0.06 0.03,0.1 0.09,0.05l0,-0.17s0.12,0.16 0.12,0.16l-0.09,0.27l-0.01,0c-0.04,-0.07 0.03,-0.1 -0.06,-0.1l-0.04,-0.14l0,0.05l0,0l-0.02,0.01zm-0.14,-0.31l0.03,-0.03l-0.03,0.03l0,0zm0.13,-0.02s-0.04,0.01 -0.06,0.03l0.04,0.05l-0.04,0.03l0,0s0.06,0.03 0.06,0.03c0,-0.05 0,-0.1 0,-0.14l0,0zm0.06,0.52l-0.03,-0.04l0.23,0.76l0,-0.24c-0.12,-0.12 0.02,-0.03 -0.15,-0.3l-0.05,-0.18l0,0zm0.07,0.04l0.02,0.03c0.05,0.33 0.1,0.09 0.1,0.34l0,0s0,-0.66 0,-0.66c0,0.08 -0.01,0.27 -0.12,0.29l0,0zm0.08,-0.37l0,-0.15s0.05,0.13 0.05,0.13l-0.05,-0.31s-0.02,0.07 -0.04,0.11c0,0.13 0,0.06 -0.07,0.04c0.03,0.07 0.1,0.09 0.1,0.18l0,0l0.01,0zm-0.12,-0.32l0,0s0.01,-0.01 0.01,-0.01l-0.02,0l0.01,0.01zm0.03,0.04s0,0.04 0.01,0.05l-0.03,0s0.01,-0.05 0.01,-0.05l0,0l0.01,0zm0.18,0.43l0,-0.21s0,0.21 0,0.21l0,0zm0,-0.6l0,-0.15s0.04,0.31 0.04,0.31l0,-0.07s0,0.05 0,0.05l-0.02,0.09l-0.03,-0.22l0,0l0.01,-0.01zm-0.06,-0.37l0,0s0,0 0,0l0,0zm-0.04,0.17l0,0.02s0,-0.02 0,-0.02l0,0zm0.2,-0.43l0,0s0,0 0,0l0,0zm0.01,0.05l0,0.04s-0.21,0.1 -0.21,0.1l0.21,-0.1l0,0.19s0,-0.22 0,-0.22l0,0l0,-0.01zm0.01,0.29c0,0.1 0,0.21 -0.03,0.3l0.03,-0.3l0,0zm-0.16,0.39l0,-0.06s0,0.06 0,0.06l0,0zm0,-0.32l-0.02,0.06l0.02,-0.06l0,0zm-0.2,0.52l0,-0.05s0,0 0,0l0,0.15l0,0s0,-0.1 0,-0.1l0,0zm0,0.14l0,0.04s0,0 0,0l0,-0.04l0,0zm0,-0.37l0,0s0,0 0,0l0,0zm-0.06,-0.07l0,0s0,0 0,0l0,0zm-0.05,-0.32l0,0s0,0 0,0l0,0zm0.56,0.4l0,0.32s-0.02,-0.02 -0.03,-0.02c0,-0.02 0,-0.04 0,-0.07l0.03,-0.23l0,0zm-0.09,0.3s-0.04,0.12 -0.06,0.14l-0.02,0l0,-0.27l0.03,-0.03c0.01,0.06 0.03,0.11 0.05,0.15l0,0l0,0.01zm-0.01,-0.21l0.03,0.12l0.05,-0.46s-0.03,0.02 -0.04,0l0,0.17c-0.04,0.11 -0.04,0.14 -0.04,0.17l0,0zm0.1,0.29l-0.04,-0.03s-0.01,0 -0.02,0l-0.09,0.14l0.16,0.55l0,-0.66l0,0l-0.01,0zm0.04,0.01l0,0l0.05,0.53l0.05,0.02l0,1.41l-0.11,0c0.11,0 0.05,-0.58 0.05,-0.73l-0.05,-1.23l0,0l0.01,0zm0,0.93l0,0.98s0,-0.98 0,-0.98l0,0zm-0.24,-0.75l0.05,0.75c-0.12,-0.12 -0.06,-0.47 -0.06,-0.65l0,-0.09l0,0l0.01,-0.01zm0.05,0.8l-0.06,-0.06l0.06,0.51l0,-0.45l0,0zm0.04,0.02l0,0.27s0,-0.27 0,-0.27l0,0zm-90.29,-27.92l0,-92.71l50.5,0l0,94.89l-27.2,-15.73l-23.31,13.54l0,0l0.01,0.01zm138.89,-54.83l-25.25,0l0,37.88l25.25,0l0,-37.88l0,0zm-25.25,75.75l0,63.13l-22.8,0l-0.14,-55.08l-0.26,0.16c-0.02,-0.1 -0.04,-0.21 -0.07,-0.31c0.07,0.03 -0.02,0.16 0.2,0.09l0,-1.49l-0.04,0l-0.05,-0.53l-0.05,-0.02c0,-0.06 0.02,-0.29 0.02,-0.46l0,0.04s-0.02,-0.58 -0.02,-0.58c0.03,-0.07 0.02,-0.15 -0.01,-0.2l0.26,-0.15l-15.8,-9.06l-11.75,-6.98l0,-102.2l101.01,0l25.25,25.25l0,63.13l-25.25,25.25l-50.5,0l0,0.01zm-23.26,5.24l0,-0.29s0,0.29 0,0.29l0,0zm-0.03,-0.44l0,0s0,0 0,0l0,0zm0.01,3.06l-0.04,-0.14c-0.03,-0.17 -0.09,-0.3 0,-0.44c0.01,-0.02 0.06,-0.33 -0.05,-0.33c0,-0.15 0.06,-0.37 -0.05,-0.49l0,-0.23l0.16,0.64l0,1s-0.03,-0.01 -0.03,-0.01l0,0l0.01,0zm-0.22,-0.74l0,0.02s-0.04,-0.3 -0.04,-0.3l-0.22,-0.5c0.01,0.16 -0.09,-0.09 -0.1,-0.1l0,0.02c0.13,0.28 0.25,0.57 0.36,0.86l0,0zm-0.42,-0.97l0,0s0,0 0,0l0,0zm-0.01,-0.11l-0.01,0s0.02,0.1 0.02,0.1l0,0s0.04,-0.07 0.04,-0.07c-0.02,-0.01 -0.04,-0.02 -0.05,-0.03l0,0zm-0.22,-0.32l0,-0.02s0,0.02 0,0.02l0,0zm0.45,-0.68l0,0s0,0 0,0l0,0zm0.12,-0.02l0,0s0,0 0,0z" id="svg_16"/>
  <g id="svg_17">
   <path class="cls-5" d="m20.09,251.25l-1.66,0l0,12.18l1.66,0l0,-1.52l3.32,0l0,3.05l-1.66,3.05l-4.98,0l-1.66,-3.05l0,-15.23l1.66,-3.05l4.98,0l1.66,3.05l0,3.05l-3.32,0l0,-1.52l0,-0.01z" id="svg_18"/>
   <path class="cls-5" d="m32.58,264.95l-1.66,3.05l-4.98,0l-1.66,-3.05l0,-15.23l1.68,-3.05l4.96,0l1.66,3.05l0,15.23zm-3.32,-1.52l0,-12.18l-1.66,0l0,12.18l1.66,0z" id="svg_19"/>
   <path class="cls-5" d="m36.76,259.32l0,8.68l-3.32,0l0,-21.32l3.53,0l2.28,8.68l0,-8.68l3.32,0l0,21.32l-3.53,0l-2.28,-8.68z" id="svg_20"/>
   <path class="cls-5" d="m43.44,249.72l1.66,-3.05l4.98,0l1.66,3.05l0,3.05l-3.32,0l0,-1.52l-1.66,0l0,3.81l3.32,0l1.66,3.05l0,6.85l-1.66,3.05l-4.98,0l-1.66,-3.05l0,-3.05l3.32,0l0,1.52l1.66,0l0,-3.81l-3.32,0l-1.66,-3.05l0,-6.85z" id="svg_21"/>
   <path class="cls-5" d="m60.9,246.68l0,4.57l-2.49,0l0,16.75l-3.32,0l0,-16.75l-2.49,0l0,-4.57l8.3,0z" id="svg_22"/>
   <path class="cls-5" d="m65.16,260.38l-0.07,0l0,7.62l-3.32,0l0,-21.32l6.64,0l1.66,3.05l0,7.62l-1.47,2.69l2.09,7.97l-3.53,0l-2,-7.62l0,-0.01zm1.59,-9.13l-1.66,0l0,4.57l1.66,0l0,-4.57z" id="svg_23"/>
   <path class="cls-5" d="m74.25,246.68l0,16.75l1.66,0l0,-16.75l3.32,0l0,18.28l-1.66,3.05l-4.98,0l-1.66,-3.05l0,-18.28l3.32,0z" id="svg_24"/>
   <path class="cls-5" d="m85.08,251.25l-1.66,0l0,12.18l1.66,0l0,-1.52l3.32,0l0,3.05l-1.66,3.05l-4.98,0l-1.66,-3.05l0,-15.23l1.66,-3.05l4.98,0l1.66,3.05l0,3.05l-3.32,0l0,-1.52l0,-0.01z" id="svg_25"/>
   <path class="cls-5" d="m94.24,251.25l-1.66,0l0,12.18l1.66,0l0,-1.52l3.32,0l0,3.05l-1.66,3.05l-4.98,0l-1.66,-3.05l0,-15.23l1.66,-3.05l4.98,0l1.66,3.05l0,3.05l-3.32,0l0,-1.52l0,-0.01z" id="svg_26"/>
   <path class="cls-5" d="m98.43,268l0,-21.32l3.32,0l0,21.32l-3.32,0z" id="svg_27"/>
   <path class="cls-5" d="m110.91,264.95l-1.66,3.05l-4.98,0l-1.66,-3.05l0,-15.23l1.68,-3.05l4.96,0l1.66,3.05l0,15.23zm-3.32,-1.52l0,-12.18l-1.66,0l0,12.18l1.66,0z" id="svg_28"/>
   <path class="cls-5" d="m115.1,259.32l0,8.68l-3.32,0l0,-21.32l3.53,0l2.28,8.68l0,-8.68l3.32,0l0,21.32l-3.53,0l-2.28,-8.68z" id="svg_29"/>
   <path class="cls-5" d="m131.77,251.25l0,3.81l4.98,0l0,4.57l-4.98,0l0,3.81l4.98,0l0,4.57l-6.64,0l-1.66,-3.05l0,-15.23l1.66,-3.05l6.64,0l0,4.57l-4.98,0z" id="svg_30"/>
   <path class="cls-5" d="m144.29,268l0,-21.32l3.32,0l0,21.32l-3.32,0z" id="svg_31"/>
   <path class="cls-5" d="m151.79,259.32l0,8.68l-3.32,0l0,-21.32l3.53,0l2.28,8.68l0,-8.68l3.32,0l0,21.32l-3.53,0l-2.28,-8.68z" id="svg_32"/>
   <path class="cls-5" d="m161.79,259.32l0,8.68l-3.32,0l0,-21.32l3.53,0l2.28,8.68l0,-8.68l3.32,0l0,21.32l-3.53,0l-2.28,-8.68z" id="svg_33"/>
   <path class="cls-5" d="m176.76,264.95l-1.66,3.05l-4.98,0l-1.66,-3.05l0,-15.23l1.68,-3.05l4.96,0l1.66,3.05l0,15.23zm-3.32,-1.52l0,-12.18l-1.66,0l0,12.18l1.66,0z" id="svg_34"/>
   <path class="cls-5" d="m180.53,268l-2.91,-21.32l3.32,0l1.66,12.18l1.66,-12.18l3.32,0l-2.91,21.32l-4.15,0l0.01,0z" id="svg_35"/>
   <path class="cls-5" d="m191.77,261.91l0,6.09l-3.32,0l0,-18.28l1.66,-3.05l4.98,0l1.66,3.05l0,18.28l-3.32,0l0,-6.09l-1.66,0zm1.66,-4.57l0,-6.09l-1.66,0l0,6.09l1.66,0z" id="svg_36"/>
   <path class="cls-5" d="m202.59,251.25l-1.66,0l0,12.18l1.66,0l0,-1.52l3.32,0l0,3.05l-1.66,3.05l-4.98,0l-1.66,-3.05l0,-15.23l1.66,-3.05l4.98,0l1.66,3.05l0,3.05l-3.32,0l0,-1.52l0,-0.01z" id="svg_37"/>
   <path class="cls-5" d="m206.78,268l0,-21.32l3.32,0l0,21.32l-3.32,0z" id="svg_38"/>
   <path class="cls-5" d="m219.26,264.95l-1.66,3.05l-4.98,0l-1.66,-3.05l0,-15.23l1.68,-3.05l4.96,0l1.66,3.05l0,15.23zm-5.39,-24.36l3.32,0l-2.49,4.57l-1.66,0l0.83,-4.57zm2.07,22.84l0,-12.18l-1.66,0l0,12.18l1.66,0z" id="svg_39"/>
   <path class="cls-5" d="m223.45,259.32l0,8.68l-3.32,0l0,-21.32l3.53,0l2.28,8.68l0,-8.68l3.32,0l0,21.32l-3.53,0l-2.28,-8.68z" id="svg_40"/>
   <path class="cls-5" d="m240.12,260.38l0,7.62l-3.32,0l0,-21.32l6.64,0l1.66,3.05l0,7.62l-1.66,3.05l-3.32,0l0,-0.02zm1.66,-9.13l-1.66,0l0,4.57l1.66,0l0,-4.57z" id="svg_41"/>
   <path class="cls-5" d="m249.28,251.25l0,3.81l4.98,0l0,4.57l-4.98,0l0,3.81l4.98,0l0,4.57l-6.64,0l-1.66,-3.05l0,-15.23l1.66,-3.05l6.64,0l0,4.57l-4.98,0z" id="svg_42"/>
   <path class="cls-5" d="m258.45,259.32l0,8.68l-3.32,0l0,-21.32l3.53,0l2.28,8.68l0,-8.68l3.32,0l0,21.32l-3.53,0l-2.28,-8.68z" id="svg_43"/>
   <path class="cls-5" d="m265.12,268l0,-21.32l3.32,0l0,21.32l-3.32,0z" id="svg_44"/>
   <path class="cls-5" d="m272.63,259.32l0,8.68l-3.32,0l0,-21.32l3.53,0l2.28,8.68l0,-8.68l3.32,0l0,21.32l-3.53,0l-2.28,-8.68z" id="svg_45"/>
   <path class="cls-5" d="m279.3,249.72l1.66,-3.05l4.98,0l1.66,3.05l0,3.05l-3.32,0l0,-1.52l-1.66,0l0,3.81l3.32,0l1.66,3.05l0,6.85l-1.66,3.05l-4.98,0l-1.66,-3.05l0,-3.05l3.32,0l0,1.52l1.66,0l0,-3.81l-3.32,0l-1.66,-3.05l0,-6.85z" id="svg_46"/>
   <path class="cls-5" d="m291.79,246.68l0,16.75l1.66,0l0,-16.75l3.32,0l0,18.28l-1.66,3.05l-4.98,0l-1.66,-3.05l0,-18.28l3.32,0z" id="svg_47"/>
   <path class="cls-5" d="m300.95,246.68l0,16.75l4.98,0l0,4.57l-6.64,0l-1.66,-3.05l0,-18.28l3.32,0l0,0.01z" id="svg_48"/>
   <path class="cls-5" d="m310.12,261.91l0,6.09l-3.32,0l0,-18.28l1.66,-3.05l4.98,0l1.66,3.05l0,18.28l-3.32,0l0,-6.09l-1.66,0zm1.66,-4.57l0,-6.09l-1.66,0l0,6.09l1.66,0z" id="svg_49"/>
   <path class="cls-5" d="m319.36,260.38l-0.07,0l0,7.62l-3.32,0l0,-21.32l6.64,0l1.66,3.05l0,7.62l-1.47,2.69l2.09,7.97l-3.53,0l-2,-7.62l0,-0.01zm1.58,-9.13l-1.66,0l0,4.57l1.66,0l0,-4.57z" id="svg_50"/>
  </g>
 </g>
</svg>