<?xml version="1.0" encoding="UTF-8"?>
<svg version="1.1" viewBox="0 0 2048 1428" width="3758" height="2621" xmlns="http://www.w3.org/2000/svg">
<path transform="translate(1032,7)" d="m0 0 6 2 17 10 286 165 6 4-2 6-19 41-17 37-1 3 26-15 24-14 28-16 15-9 6 1 24 14 78 45 7 4v2l-28 16-26 15-24 14-28 16-24 14-28 16-24 14-260 150-24 14-14 8-6-1-24-14-52-30-28-16-24-14-182-105-28-16-24-14-26-15-24-14-28-16-24-14-15-9 5-4 28-16 26-15 24-14 28-16 24-14 338-195z" fill="#258DBE"/>
<path transform="translate(531,298)" d="m0 0 5 2 28 16 24 14 28 16 24 14 364 210 19 11v538l-5-2-28-16-156-90-24-14-28-16-26-15-24-14-28-16-24-14-28-16-24-14-78-45-19-11v-350l1-1 91-8 2-1-28-16-52-30-13-8-1-1z" fill="#258DBE"/>
<path transform="translate(1514,309)" d="m0 0h3v535l-9 6-28 16-72 42-26 15-27 16-28 16-27 16-28 16-27 16-26 15-8 4-12-16-10-13-29-38-3-4-1 103-13 8-28 16-24 14-28 16-17 10h-2v-536l28-16 24-14 234-135 24-14 52-30 73-43 29-17z" fill="#FDD350"/>
<path transform="translate(1401,221)" d="m0 0 6 1 24 14 78 45 7 4v2l-28 16-26 15-24 14-28 16-24 14-28 16-24 14-260 150-24 14-14 8-6-1-24-14-52-30-28-16-24-14-182-105-7-4 5-4 28-16 52-30 21-12 5 1 182 105 21 12 6-2 156-90 24-14 28-16 24-14 28-16 34-20 52-30z" fill="#FED450"/>
<path transform="translate(532,487)" d="m0 0 6 2 26 15 24 14 28 16 24 14 3 2 1 33 1 11 2-2 1 3 10 1v2h-10l-1 7-1 2h-2v170l23 13 24 14 28 16 78 45 24 14 28 16 156 90 17 10v123l-6-2-182-105-24-14-28-16-26-15-24-14-28-16-24-14-28-16-24-14-78-45-17-10-1-1z" fill="#258DBE"/>
<path transform="translate(1350,405)" d="m0 0 2 1-3 3-12 39-1 91-24 14-26 15-24 14-28 16-52 30-24 14h-2l1 178 11 16-1 4-8 15-1 7-1 26v62l-1 104-13 8-28 16-24 14-28 16-17 10h-2v-536l28-16 24-14 234-135z" fill="#FDD450"/>
<path transform="translate(1033,130)" d="m0 0 6 2 52 30 24 14 52 30 19 12 5 5 2 5-10 22-5 10-11 23-24 50-18 37-2 7 1-1 2-6 12-25 8-16 8-17 11-23 24-50 5-10 3-2 1-2 16 8 3 3-3 9-8 16-14 29-11 23-16 34-5 10 1 4-130 75-4 1-18-10-24-14-26-15-28-16-24-14-52-30-28-16-5-3-5 1-28 16-52 30-22 13-5-1-18-10-24-14-10-6 4-4 25-14 22-13 28-16 24-14 260-150z" fill="#23A0C7"/>
<path transform="translate(1401,376)" d="m0 0h2v411l-5-2-26-15-20-12-3-2h-3l3 6 8 11 7 11 10 14-2 4-11 9-10 7-29 17-78 45-24 14-7 4-1 124-4-4-15-20-14-18-12-16-10-13-1-2v-61l1-26 2-9 8-14-1-4-10-15v-178l28-16 78-45 28-16 27-16 18-10 1-91 12-39 4-5 23-13 24-14z" fill="#F4C337"/>
<path transform="translate(1022,581)" d="m0 0h1v538l-2-1v-123l-27-15-17-10-156-90-28-16-24-14-78-45-21-12-26-15-1-1v-149l1-21h2l2-9 27-2 7-1 100-6 24-2 7 1 11 4 9 4 12 6 23 13 26 15 16 9v4 33l-3-4-14-14-2-1-1-5-8 5 2 5 20 18 5 6 1 3v20l1 13-1 16 1 1-1 25-1 12-1 3-4-2-16-15-8-7-10-9-13-12-14-12-16-15-8-7-6-5-2-3-6 3 6 4 14 13 8 7 12 11 14 12 17 16 8 7 12 11 10 9 3 2 1 12 1 7v61l5 2 26 15 17 10 11 7-1 2 5 6 7 6v2h2l7 8 9 10 8 7 7 8 5 4 3 1-1-6z" fill="#23A0C7"/>
<path transform="translate(1401,376)" d="m0 0h2v411l-5-2-26-15-20-12-29-17-16-10 5-25 12-56 14-65 6-28 11-52 8-30 6-17 8-24 11-38 3-12 5-5z" fill="#E4AC20"/>
<path transform="translate(1124,1261)" d="m0 0h136l1 1v31l-124 1-5 5v21l4 4v2l65-1h33l7 7 8 7 12 11v50l-10 9-11 9-5 4h-137v-32l125-1 4-4v-21l-5-5-99-1-25-25v-48l7-7 8-7z" fill="#258DBE"/>
<path transform="translate(1883,1261)" d="m0 0h136l15 14 8 7 3 3v70l-11 10-11 9-4 3h-10l7 8 9 10 9 11 14 15v1h-44l-10-11-9-11-13-14-7-8-50-1v45h-32zm33 32-1 1v51h92l6-5v-40l-7-7z" fill="#258DBE"/>
<path transform="translate(903,1261)" d="m0 0h33l12 13 9 11 11 12 9 11 13 14 9 11 11 12 9 11 12 13 1 2 1-110h32l1 62v99h-33l-11-12-9-11-12-13-9-11-12-13-9-11-12-13-9-11-12-13-3-3v111h-32z" fill="#258DBE"/>
<path transform="translate(635,1261)" d="m0 0h33l9 10 9 11 12 13 9 11 12 13 9 11 12 13 9 11 11 12 4 5v-109l1-1h32l1 128v33h-33l-7-7-9-11-12-13-9-11-12-13-9-11-12-13-9-11-12-13-6-7-1 110h-32z" fill="#258DBE"/>
<path transform="translate(460,1261)" d="m0 0h146v32l-113 1-1 31h71l1 1v32h-72v32h114v32h-146z" fill="#258DBE"/>
<path transform="translate(268,1261)" d="m0 0h136l16 15 8 7 2 2v70l-11 10-11 9-4 3h-104v45h-32zm33 32-1 1v51h92l6-5v-40l-7-7z" fill="#F4C337"/>
<path transform="translate(1727,1261)" d="m0 0h52l22 43 10 19 18 35 10 19 17 33 6 12h-37l-14-27-5-9h-107l-18 35-1 1h-36l2-6 23-45 10-19 18-35 10-19 17-33zm20 32-10 18-21 41v1h73l-2-6-16-31-10-19-3-4z" fill="#258DBE"/>
<path transform="translate(31,1261)" d="m0 0h110l8 8 8 7 10 9v30h-33l-1-16-6-5h-83l-6 5-1 87 4 2 1 1h87l3-3h2v-17l1-1h31l1 1v31l-12 11-11 9-3 2h-111l-11-9-14-12-1-1v-115l15-14 8-7z" fill="#F4C338"/>
<path transform="translate(1292,1261)" d="m0 0h33v125l4 2 1 1h87l4-3 1-125h33v139l-11 10-11 9-4 3h-111l-14-12-11-9-1-1z" fill="#258DBE"/>
<path transform="translate(627,476)" d="m0 0 14 8 26 15 24 14 9 7 1 2 4-1 5 4 1 2h3l3 2 3 8 1 4 2 1-10 1h-3l-9 2-54 6 1 8 26-2 74-5 6-2 17 10v1l-12 2-33 2-25 2-52 3-3-4-1-4v10h14l41-3 67-4 13-1 7 4 15 9 8 5-2 4-43 3-24 2-83 5h-10l-2-2-2 3-1-14-1-33-25-14-17-10-52-30-16-9v349h-1v-350l1-1 91-8z" fill="#23A0C7"/>
<path transform="translate(1489,1261)" d="m0 0h32v129h114v32h-146z" fill="#258DBE"/>
<path transform="translate(198,1261)" d="m0 0h33v161h-32l-1-54z" fill="#F4C339"/>
<path transform="translate(834,1261)" d="m0 0h32l1 79v82h-33z" fill="#258DBE"/>
<path transform="translate(1345,187)" d="m0 0 2 1-2 6-19 41-17 37-1-2h-74l-2-1 1-6 5-9 4-6 28-16 26-15 48-28z" fill="#23A0C7"/>
<path transform="translate(1207,893)" d="m0 0 4 4v123l-5-5-14-18-24-32-1-5 13-23 16-29 8-14z" fill="#E4AC20"/>
<path transform="translate(1221,239)" d="m0 0 6 2 5 4-4 4-15 31-13 28-20 40 2 1-17 10-3-1v-3h2l2-5 19-39 13-28 8-16 12-25z" fill="#23A0C7"/>
<path transform="translate(757,348)" d="m0 0h8v2l-28 16-22 13-5-1-14-8-1-3-2-1 7-4 12-3 7-1 9-3 15-3z" fill="#258EBE"/>
<path transform="translate(1029,316)" d="m0 0h1v7l-36 12-40 14-30 10-11 4h-3v3l-4-1-2-2 1-4 38-13 43-15 38-13z" fill="#268DBE"/>
<path transform="translate(1022,402)" d="m0 0h6v9l-21 7h-7v2l4 2-5-1-8-5v-3z" fill="#258DBE"/>
</svg>
